<svg xmlns="http://www.w3.org/2000/svg" viewBox="1724 2959 7149.16 931"><path fill="#3617CD" d="M8020 3528v-363l67 2 68 1-2 32-1 32 26-25c108-103 289-59 353 85 33 76 34 212 1 283-13 27-33 60-45 73-72 78-206 87-289 21l-38-30v251h-140v-362zm324 60c92-41 85-267-8-312-42-20-57-20-102-1-64 26-97 161-60 249 28 67 103 95 170 64zM3719 3710c-87-15-156-69-192-150-29-65-28-188 2-251 44-92 122-147 221-156 156-14 274 95 282 262l3 50-192 3c-213 3-206 0-179 66 19 47 51 66 109 66 54 0 101-20 117-50 9-17 21-20 70-20 33 0 60 4 60 9 0 45-68 127-125 152-51 22-118 29-176 19zm164-336c9-10-13-60-37-83-52-49-149-31-180 34-9 18-16 38-16 44 0 12 221 16 233 5zM5325 3715c-5-2-27-6-47-10-21-3-51-17-67-30-36-31-41-31-41 0 0 24-2 25-70 25h-70v-740h150v262l30-26c111-92 287-36 337 108 27 76 24 206-6 274-24 52-74 106-115 121-28 11-89 20-101 16zm34-131c88-62 78-265-15-309-111-52-204 80-163 229 17 60 58 96 111 96 24 0 54-7 67-16zM5831 3709c-157-31-246-197-196-366 41-139 180-218 324-183 109 26 180 116 189 242l5 68h-192c-186 0-191 1-191 20 0 29 26 76 52 94 49 35 149 15 186-36 10-14 27-18 73-18 34 0 59 4 59 10 0 24-41 89-74 117-54 48-150 69-235 52zm169-353c0-36-45-84-85-92-49-9-103 12-126 50-38 62-33 66 96 66h115v-24zM6777 3710c-95-17-177-91-177-160 0-18 6-20 68-20 66 0 67 1 82 33 29 62 140 72 182 16 36-48 5-74-131-108-107-27-149-48-172-85-53-87 8-201 121-225 122-26 227-4 284 59 20 22 36 46 36 54s3 21 6 30c5 14-4 16-62 16-66 0-70-2-86-29-19-35-71-49-127-35-27 7-37 15-39 32-6 37 24 60 102 77 122 27 163 44 196 81 53 60 39 159-30 218-49 41-163 62-253 46zM1940 3420v-280l80 40 80 40v480h-160v-280zM2620 3330v-371l117 3 116 3 81 242c45 133 84 244 87 247s29-67 58-157c29-89 65-200 80-247l28-85h228l3 368 2 367h-161l3-250c2-138 1-250-2-250s-44 111-91 248l-85 247-65 3-64 3-80-231c-43-127-84-229-90-227s-11 85-13 230l-2 227h-150v-370zM4110 3437c0-145 2-266 4-268s34-2 70-1l66 4v62l28-27c76-73 208-75 267-5l26 31 27-26c59-57 153-72 227-38 92 42 104 81 105 334v197h-149l-3-196c-3-192-3-196-27-215-29-24-92-25-120-1-32 25-40 79-41 255v157h-140v-167c0-178-9-237-40-253-24-13-76-13-101 0-42 23-49 59-49 245v175h-150v-263zM6230 3435v-265h60c33 0 63-1 68-2 4-2 8 16 10 40l3 42 27-31c31-38 94-68 140-69h32v140h-47c-60 0-91 16-120 59-22 32-23 44-23 192v159h-150v-265zM7170 3375c0-179 0-328-1-332s31-24 70-44l71-38v135c0 74 3 134 8 134 4 0 12-8 19-19 17-27 93-61 137-61 100 0 166 50 185 140 6 28 11 132 11 230v180h-149l-3-189c-3-185-4-190-27-215-33-35-98-36-136-3-36 31-44 78-45 255v152h-140v-325zM7770 3436v-264l71-4c39-2 73-1 75 1s4 123 4 268v263h-150v-264zM1727 3093c-2-5-3-35-3-68l1-60 293-3 292-2v140h-289c-160 0-292-3-294-7zM7770 3020v-61l73 3 72 3 3 58 3 57h-151v-60z"/><path fill="#FF404F" d="M8689 3683c-90-55-74-190 26-223 49-16 89-4 125 36 73 83 18 205-92 204-18 0-45-8-59-17z"/></svg>