<svg xmlns="http://www.w3.org/2000/svg" width="148.022" height="34.103" viewBox="0 0 148.022 34.103">
  <g id="logo" transform="translate(-234.01 -314.53)">
    <path id="패스_3111" data-name="패스 3111" d="M241.561,328.878h5.676a.675.675,0,0,0,.674-.674v-3.266a.674.674,0,0,0-.674-.674h-5.676a.675.675,0,0,1-.674-.674v-5.914a.676.676,0,0,0-.681-.674h-3.259a.676.676,0,0,0-.681.674v5.914a.675.675,0,0,1-.674.674h-.906a.675.675,0,0,0-.674.674V328.2a.675.675,0,0,0,.674.674h.906a.681.681,0,0,1,.674.681v4.72a7.934,7.934,0,0,0,.639,3.154,8.193,8.193,0,0,0,1.749,2.592,8.32,8.32,0,0,0,2.585,1.749,7.964,7.964,0,0,0,3.161.632h2.838a.675.675,0,0,0,.674-.674v-3.266a.675.675,0,0,0-.674-.674H244.4a3.376,3.376,0,0,1-1.377-.281,3.47,3.47,0,0,1-2.135-3.231v-4.72A.681.681,0,0,1,241.561,328.878Z" transform="translate(0 -0.735)" fill="#121212"/>
    <path id="패스_3112" data-name="패스 3112" d="M303.462,329.314a9.62,9.62,0,0,0-1.988-3.049,9.093,9.093,0,0,0-6.568-2.732,6.936,6.936,0,0,0-1.292.126,8.048,8.048,0,0,0-1.278.365,5.464,5.464,0,0,0-1.152.611,4.413,4.413,0,0,0-.913.85v-7.811A.675.675,0,0,0,289.6,317H286.3a.676.676,0,0,0-.681.674v15.481a10.014,10.014,0,0,0,.731,3.863,9.312,9.312,0,0,0,1.995,3.027,9.208,9.208,0,0,0,6.561,2.7,9.412,9.412,0,0,0,3.625-.7,8.876,8.876,0,0,0,2.943-1.967,9.222,9.222,0,0,0,1.988-3.027,10.152,10.152,0,0,0,.731-3.905A9.957,9.957,0,0,0,303.462,329.314Zm-4.306,5.8a4.8,4.8,0,0,1-.99,1.566,4.729,4.729,0,0,1-1.468,1.04,4.419,4.419,0,0,1-3.582,0,4.728,4.728,0,0,1-1.468-1.04,4.9,4.9,0,0,1-.983-1.566,5.219,5.219,0,0,1-.358-1.953,4.9,4.9,0,0,1,.358-1.84,5.39,5.39,0,0,1,.983-1.58,5.041,5.041,0,0,1,1.468-1.1,4.038,4.038,0,0,1,1.791-.414,4.423,4.423,0,0,1,1.791.372,4.616,4.616,0,0,1,1.468,1.04,4.728,4.728,0,0,1,.99,1.566,5.147,5.147,0,0,1,.365,1.96A5.087,5.087,0,0,1,299.156,335.109Z" transform="translate(-15.358 -0.735)" fill="#121212"/>
    <path id="패스_3113" data-name="패스 3113" d="M330.971,327.29h-3.315a.676.676,0,0,0-.674.681v9.174a4.376,4.376,0,0,1-.253,1.559,4.248,4.248,0,0,1-.766,1.285,3.82,3.82,0,0,1-1.054.843,3.114,3.114,0,0,1-1.566.358,3.625,3.625,0,0,1-1.208-.239,2.909,2.909,0,0,1-1.11-.716,3.443,3.443,0,0,1-.759-1.208,4.706,4.706,0,0,1-.281-1.686v-9.37a.676.676,0,0,0-.674-.681h-3.266a.676.676,0,0,0-.674.681v9.37a9.212,9.212,0,0,0,.639,3.519,7.82,7.82,0,0,0,1.742,2.669,7.907,7.907,0,0,0,2.592,1.686,8.425,8.425,0,0,0,3.154.6,4.246,4.246,0,0,0,1.587-.323c.527-.218,1.047-.428,1.552-.646a4.719,4.719,0,0,1-.66,1.159,4.363,4.363,0,0,1-.941.927,4.578,4.578,0,0,1-1.159.611,3.941,3.941,0,0,1-1.314.225l-1.889-.028a.673.673,0,0,0-.688.674v3.315a.669.669,0,0,0,.667.674l1.707.028a8.98,8.98,0,0,0,3.6-.73,9.423,9.423,0,0,0,2.943-1.988,9.253,9.253,0,0,0,1.995-2.936,9.076,9.076,0,0,0,.745-3.6V327.971A.676.676,0,0,0,330.971,327.29Z" transform="translate(-24.211 -3.797)" fill="#121212"/>
    <path id="패스_3114" data-name="패스 3114" d="M355.332,314.53h-2.8a7.934,7.934,0,0,0-3.154.639,8.519,8.519,0,0,0-2.592,1.735,8.019,8.019,0,0,0-1.749,2.571,7.93,7.93,0,0,0-.632,3.154v.864h-1.58a.678.678,0,0,0-.681.681v3.259a.682.682,0,0,0,.681.681h.9a.676.676,0,0,1,.681.674V341a.675.675,0,0,0,.674.674h3.28a.675.675,0,0,0,.674-.674V328.789a.676.676,0,0,1,.681-.674h4.334a.681.681,0,0,0,.674-.681v-3.259a.676.676,0,0,0-.674-.681h-5.015v-.864a3.475,3.475,0,0,1,.274-1.384,3.532,3.532,0,0,1,.738-1.1,3.4,3.4,0,0,1,1.1-.731,3.6,3.6,0,0,1,1.384-.26h2.8a.676.676,0,0,0,.674-.681v-3.259A.681.681,0,0,0,355.332,314.53Z" transform="translate(-32.177)" fill="#121212"/>
    <path id="패스_3115" data-name="패스 3115" d="M374.725,327.325h-3.077a9.105,9.105,0,0,0-3.07.471,8.134,8.134,0,0,0-2.241,1.215.667.667,0,0,1-.948-.162l-.9-1.271a.676.676,0,0,0-.555-.288h-.091a.676.676,0,0,0-.674.681v16.823a.675.675,0,0,0,.674.674h3.28a.675.675,0,0,0,.674-.674v-9.335a3.466,3.466,0,0,1,.274-1.377,3.608,3.608,0,0,1,.745-1.124,3.562,3.562,0,0,1,2.494-1.018h3.414a.676.676,0,0,0,.681-.674V328A.676.676,0,0,0,374.725,327.325Z" transform="translate(-38.435 -3.797)" fill="#121212"/>
    <path id="패스_3116" data-name="패스 3116" d="M434.406,331.073a7.055,7.055,0,0,0-1.489-2.213,6.925,6.925,0,0,0-2.206-1.482,6.719,6.719,0,0,0-2.7-.548,7.848,7.848,0,0,0-1.271.112,5.941,5.941,0,0,0-1.25.365,5.685,5.685,0,0,0-1.145.66,4.952,4.952,0,0,0-.969.983,5.033,5.033,0,0,0-2.128-1.644,6.715,6.715,0,0,0-4.9-.028,7.227,7.227,0,0,0-1.637.885.681.681,0,0,1-.913-.084l-.639-.7a.676.676,0,0,0-.5-.225H412.5a.676.676,0,0,0-.674.681v16.823a.675.675,0,0,0,.674.674h3.287a.675.675,0,0,0,.674-.674V333.791a2.281,2.281,0,0,1,.176-.9,2.332,2.332,0,0,1,.492-.745,2.274,2.274,0,0,1,.731-.506,2.246,2.246,0,0,1,.892-.176,2.28,2.28,0,0,1,.9.176,2.4,2.4,0,0,1,1.25,1.25,2.28,2.28,0,0,1,.176.9v10.867a.675.675,0,0,0,.674.674h3.28a.676.676,0,0,0,.681-.674V333.791a2.28,2.28,0,0,1,.176-.9,2.332,2.332,0,0,1,.492-.745,2.275,2.275,0,0,1,.731-.506,2.246,2.246,0,0,1,.892-.176,2.309,2.309,0,0,1,2.325,2.325v10.867a.675.675,0,0,0,.674.674h3.266a.675.675,0,0,0,.674-.674V333.791A6.93,6.93,0,0,0,434.406,331.073Z" transform="translate(-52.915 -3.66)" fill="#121212"/>
    <path id="패스_3117" data-name="패스 3117" d="M273.915,332.233a9.1,9.1,0,0,0-1.988-3.041,8.733,8.733,0,0,0-2.943-1.953,9.54,9.54,0,0,0-3.625-.688,9,9,0,0,0-3.6.731,9.265,9.265,0,0,0-4.952,5.057,10,10,0,0,0-.724,3.835,9.783,9.783,0,0,0,.724,3.793,9.308,9.308,0,0,0,4.952,5.064,9.223,9.223,0,0,0,7.228,0,9.3,9.3,0,0,0,4.931-5.064,9.785,9.785,0,0,0,.731-3.793A10.282,10.282,0,0,0,273.915,332.233Zm-4.3,5.964a4.68,4.68,0,0,1-1,1.559,4.442,4.442,0,0,1-1.468,1,4.507,4.507,0,0,1-1.791.358,4.321,4.321,0,0,1-1.791-.386,4.587,4.587,0,0,1-1.454-1.04,4.766,4.766,0,0,1-.976-1.566,5.218,5.218,0,0,1-.358-1.953,5.46,5.46,0,0,1,.358-2.023,4.625,4.625,0,0,1,.976-1.566,4.169,4.169,0,0,1,1.454-1,4.743,4.743,0,0,1,3.582,0,4.224,4.224,0,0,1,1.468,1,4.785,4.785,0,0,1,1,1.566,5.785,5.785,0,0,1,0,4.046Z" transform="translate(-6.567 -3.577)" fill="#121212"/>
    <path id="패스_3118" data-name="패스 3118" d="M400.322,336.173a9.785,9.785,0,0,1-.731,3.793,9.51,9.51,0,0,1-1.988,3.042,9.36,9.36,0,0,1-2.943,2.023,9.24,9.24,0,0,1-7.235,0c-.169-.077-.337-.154-.5-.239l.3.126c-.983-2.227,2.311-5.928,2.648-6.259l.028-.028,2.1,5.753.667-.724a.44.44,0,0,0,.112-.337l-.281-6.336a.167.167,0,0,1,.077-.161l1.833-1.321c.436-.309.969-1.264.625-1.672-.316-.365-1.328-.077-1.707.211l-1.819,1.377a.309.309,0,0,1-.19.049l-6.511-.773a.426.426,0,0,0-.337.105l-.745.639,5.135,2.023-1.075.8a.143.143,0,0,1-.063.035c-2.922,1.96-5.142,1.489-5.345,1.37.049.141.105.274.162.414a.91.91,0,0,1-.056-.119,2.221,2.221,0,0,1-.112-.3h-.007c-.007-.021-.014-.042-.021-.07a9.751,9.751,0,0,1-.59-3.421,10,10,0,0,1,.731-3.835,9.283,9.283,0,0,1,4.945-5.057,9.063,9.063,0,0,1,3.61-.731,9.54,9.54,0,0,1,3.625.688,8.734,8.734,0,0,1,2.943,1.953,9.211,9.211,0,0,1,1.988,3.041A10.282,10.282,0,0,1,400.322,336.173Z" transform="translate(-43.964 -3.577)" fill="#121212"/>
    <g id="그룹_192" data-name="그룹 192" transform="translate(338.351 335.963)">
      <path id="패스_3119" data-name="패스 3119" d="M382.6,345.16l.02.012c-.02-.043-.042-.086-.062-.129C382.57,345.082,382.581,345.122,382.6,345.16Z" transform="translate(-382.554 -345.043)" fill="#fff"/>
    </g>
  </g>
</svg>
