<svg xmlns="http://www.w3.org/2000/svg" width="76.334" height="44.686" viewBox="0 0 76.334 44.686">
  <g id="logo" transform="translate(-232.36 -249.232)">
    <g id="그룹_111" data-name="그룹 111" transform="translate(232.36 249.254)">
      <path id="패스_23" data-name="패스 23" d="M266.823,251.458a5.751,5.751,0,0,0-4.16-1.687H238.207a5.848,5.848,0,1,0,0,11.7h6.221v25.282a6.03,6.03,0,1,0,12.06,0V261.466h6.175a5.884,5.884,0,0,0,4.161-10.007Z" transform="translate(-232.36 -249.415)" fill="#fff"/>
      <path id="패스_24" data-name="패스 24" d="M317.01,268.555a15.728,15.728,0,0,0-5.71-6.157,15.311,15.311,0,0,0-8.149-2.263,15.6,15.6,0,0,0-5.345.921v-5.6a6.19,6.19,0,1,0-12.379,0v21.556a16.967,16.967,0,0,0,2.228,8.572,16.528,16.528,0,0,0,14.551,8.348,16.88,16.88,0,0,0,8.525-2.228,16.2,16.2,0,0,0,6.106-6.139,17.109,17.109,0,0,0,2.194-8.553A17.921,17.921,0,0,0,317.01,268.555Z" transform="translate(-248.231 -249.263)" fill="#fff"/>
    </g>
    <path id="패스_25" data-name="패스 25" d="M313.971,283.291a2.17,2.17,0,0,1,0,3.758l-3.861,2.229-3.86,2.228A2.17,2.17,0,0,1,303,289.627v-8.914a2.17,2.17,0,0,1,3.254-1.879l3.86,2.229Z" transform="translate(-21.125 -8.765)" fill="#ff4c22"/>
    <path id="패스_26" data-name="패스 26" d="M336.75,254.521a5.289,5.289,0,1,1-5.289-5.289,5.289,5.289,0,0,1,5.289,5.289" transform="translate(-28.057 0)" fill="#fff"/>
  </g>
</svg>
